<?xml version="1.0" standalone="no"?>
<!DOCTYPE svg PUBLIC "-//W3C//DTD SVG 20010904//EN"
 "http://www.w3.org/TR/2001/REC-SVG-20010904/DTD/svg10.dtd">
<svg version="1.0" xmlns="http://www.w3.org/2000/svg"
 width="240.000000pt" height="210.000000pt" viewBox="0 0 240.000000 210.000000"
 preserveAspectRatio="xMidYMid meet">

<g transform="translate(0.000000,210.000000) scale(0.100000,-0.100000)"
fill="#000000" stroke="none">
<path d="M1824 1885 c-27 -18 -144 -86 -260 -151 -251 -141 -366 -217 -459
-305 l-70 -67 77 -80 c92 -96 143 -170 172 -250 l21 -60 110 130 c148 174 237
294 286 384 23 41 43 74 44 72 12 -12 -66 -295 -114 -413 -61 -149 -141 -278
-269 -434 l-34 -41 220 0 220 0 62 68 c74 81 140 210 166 327 22 96 24 303 5
415 -23 136 -100 411 -120 431 -3 4 -29 -8 -57 -26z"/>
<path d="M507 1479 c-96 -199 -127 -315 -127 -474 0 -116 17 -193 62 -277 l31
-58 159 0 158 0 -34 68 c-18 37 -45 104 -60 150 -24 76 -57 278 -55 340 l0 27
11 -25 c44 -103 110 -230 197 -374 55 -93 101 -173 101 -178 0 -4 50 -8 110
-8 96 0 112 2 118 18 4 9 7 71 7 138 l0 121 -42 84 c-57 114 -130 192 -337
357 -94 74 -188 151 -208 170 l-37 35 -54 -114z"/>
<path d="M101 554 c-20 -25 -21 -40 -21 -226 0 -198 0 -199 25 -223 l24 -25
1071 0 1071 0 24 25 c25 24 25 25 25 223 0 186 -1 201 -21 226 l-20 26 -1079
0 -1079 0 -20 -26z m279 -133 c0 -27 -15 -41 -41 -41 -19 0 -29 -5 -29 -15 0
-10 10 -15 30 -15 23 0 30 -4 30 -20 0 -16 -7 -20 -30 -20 -20 0 -30 -5 -30
-15 0 -10 11 -15 35 -15 28 0 35 -4 35 -20 0 -18 -7 -20 -65 -20 l-65 0 0 95
0 95 65 0 c36 0 65 -4 65 -9z m155 -1 c3 -6 4 -18 1 -28 -5 -14 -14 -17 -36
-14 -30 4 -30 4 -30 -42 0 -46 0 -46 35 -46 31 0 35 -3 35 -25 0 -31 -35 -42
-84 -25 -29 9 -38 19 -47 50 -15 49 -4 105 24 125 24 17 93 20 102 5z m174 -9
c26 -26 36 -82 21 -125 -13 -40 -60 -62 -110 -51 -41 9 -60 40 -60 98 0 38 5
53 25 72 31 32 96 34 124 6z m291 10 c0 -25 -14 -41 -36 -41 -15 0 -24 -6 -24
-15 0 -9 9 -15 25 -15 18 0 25 -5 25 -20 0 -15 -7 -20 -25 -20 -22 0 -25 -4
-25 -35 0 -32 -2 -35 -30 -35 l-30 0 0 95 0 95 60 0 c33 0 60 -4 60 -9z m158
-7 c25 -17 30 -71 10 -103 -9 -15 -8 -24 5 -45 l17 -26 -34 0 c-28 0 -38 6
-50 28 l-15 27 -1 -27 c0 -25 -4 -28 -35 -28 l-35 0 0 88 c0 49 3 92 7 95 13
13 109 7 131 -9z m120 -81 l3 -93 -36 0 -35 0 0 88 c0 49 3 92 7 96 4 4 19 6
33 4 25 -3 25 -5 28 -95z m162 72 c0 -22 -4 -25 -36 -25 -42 0 -43 -23 -1 -28
41 -5 38 -42 -3 -42 -20 0 -30 -5 -30 -15 0 -11 11 -15 40 -15 33 0 40 -3 40
-20 0 -18 -7 -20 -70 -20 l-70 0 0 95 0 95 65 0 c63 0 65 -1 65 -25z m114 -11
l25 -37 3 34 c2 29 7 34 31 37 l27 3 0 -95 0 -96 -28 0 c-22 0 -33 8 -50 38
l-22 37 0 -37 c0 -35 -2 -38 -30 -38 l-30 0 0 95 c0 94 0 95 25 95 17 0 32
-11 49 -36z m277 7 c27 -33 26 -114 -1 -141 -16 -16 -33 -20 -85 -20 l-65 0 0
96 0 96 66 -4 c55 -3 70 -8 85 -27z m109 -41 l0 -70 30 0 c25 0 30 -4 30 -25
0 -24 -3 -25 -60 -25 l-60 0 0 95 0 95 30 0 30 0 0 -70z m118 43 c2 -13 7 -23
12 -23 5 0 10 10 12 23 2 17 11 23 36 25 17 2 32 -1 32 -5 0 -5 -11 -38 -25
-73 -14 -35 -25 -74 -25 -87 0 -19 -5 -23 -30 -23 -25 0 -30 4 -30 23 0 13
-11 51 -25 85 -32 79 -32 84 8 80 24 -2 33 -8 35 -25z m-1210 -80 c3 -21 -1
-23 -42 -23 -38 0 -46 3 -46 18 0 27 10 33 50 30 28 -2 36 -8 38 -25z"/>
<path d="M630 335 c0 -38 3 -45 20 -45 17 0 20 7 20 45 0 38 -3 45 -20 45 -17
0 -20 -7 -20 -45z"/>
<path d="M1090 359 c0 -12 5 -19 12 -17 18 6 20 25 3 31 -10 5 -15 0 -15 -14z"/>
<path d="M1740 334 c0 -41 2 -45 23 -42 17 2 23 11 25 37 3 33 -9 51 -35 51
-9 0 -13 -16 -13 -46z"/>
</g>
</svg>
